inDegrees=no
num_controls=7
num_derivatives=13
num_iterations=188
num_multipliers=7
num_parameters=0
num_slacks=7
num_states=26
objective=0.509034
objective_accelerations=0.041687
objective_balance=0.003732
objective_effort=0.030039
objective_height=0.320999
objective_ligament=0.112576
solver_duration=2505.677775
status=Solve_Succeeded
success=true
DataType=double
version=3
OpenSimVersion=4.5
endheader
time	/jointset/ground_pelvis/pelvis_tilt/value	/jointset/ground_pelvis/pelvis_tx/value	/jointset/ground_pelvis/pelvis_ty/value	/jointset/hip_l/hip_flexion_l/value	/jointset/hip_l/hip_adduction_l/value	/jointset/hip_l/hip_rotation_l/value	/jointset/back/lumbar_extension/value	/jointset/patellofemoral_l/patellar_flexion_l/value	/jointset/knee_l/knee_flexion_l/value	/jointset/knee_l/knee_adduction_l/value	/jointset/knee_l/knee_rotation_l/value	/jointset/ankle_l/ankle_angle_l/value	/jointset/subtalar_l/subtalar_angle_l/value	/jointset/ground_pelvis/pelvis_tilt/speed	/jointset/ground_pelvis/pelvis_tx/speed	/jointset/ground_pelvis/pelvis_ty/speed	/jointset/hip_l/hip_flexion_l/speed	/jointset/hip_l/hip_adduction_l/speed	/jointset/hip_l/hip_rotation_l/speed	/jointset/back/lumbar_extension/speed	/jointset/patellofemoral_l/patellar_flexion_l/speed	/jointset/knee_l/knee_flexion_l/speed	/jointset/knee_l/knee_adduction_l/speed	/jointset/knee_l/knee_rotation_l/speed	/jointset/ankle_l/ankle_angle_l/speed	/jointset/subtalar_l/subtalar_angle_l/speed	/forceset/tau_hip_flexion_l	/forceset/tau_hip_adduction_l	/forceset/tau_hip_rotation_l	/forceset/tau_knee_flexion_l	/forceset/tau_ankle_angle_l	/forceset/tau_subtalar_angle_l	/forceset/tau_lumbar_extension	lambda_cid13_p0	lambda_cid13_p1	lambda_cid13_p2	lambda_cid13_p3	lambda_cid13_p4	lambda_cid13_p5	lambda_cid14_p0	/jointset/ground_pelvis/pelvis_tilt/accel	/jointset/ground_pelvis/pelvis_tx/accel	/jointset/ground_pelvis/pelvis_ty/accel	/jointset/hip_l/hip_flexion_l/accel	/jointset/hip_l/hip_adduction_l/accel	/jointset/hip_l/hip_rotation_l/accel	/jointset/back/lumbar_extension/accel	/jointset/patellofemoral_l/patellar_flexion_l/accel	/jointset/knee_l/knee_flexion_l/accel	/jointset/knee_l/knee_adduction_l/accel	/jointset/knee_l/knee_rotation_l/accel	/jointset/ankle_l/ankle_angle_l/accel	/jointset/subtalar_l/subtalar_angle_l/accel	gamma_cid13_p0	gamma_cid13_p1	gamma_cid13_p2	gamma_cid13_p3	gamma_cid13_p4	gamma_cid13_p5	gamma_cid14_p0
1	-0.1737280246055392	-0.07913189789862032	0.7198487503778708	1.28259422328779	-0.3311588834453459	0.01850253608034727	-0.9599310425661937	1.200931036433277	1.200931036433269	-0.09030248456159257	-0.1744856965709362	0.1732057326054948	0.01900429198257371	0.1041604526421656	0.02036099191200613	0.06652917030986651	-0.2859151819023723	0.0011065123131645	-0.0681357466875661	-0.000366723653419464	-0.171083491336177	-0.1710834913361625	0.004825741364466772	0.003121249206750869	0.00181903887928023	0.003074562198932836	-0.4165461564079413	0.03699382991316064	-0.003910469351013738	-0.274892139218369	0.04712839711064799	0.03404995753720111	0.4427672963704194	-35.2017446480373	-8.612257777785516	0.9049370992508043	15.49284033646851	-787.4882919252387	-58.12867128609604	-1.062976945138257	1.24474832807677	0.03122902044889299	1.297204381860591	-4.800658327658236	0.1080334701043864	-1.753173558324222	0.04272140519622764	-4.34823553397431	-4.348235533973544	0.240794876310947	0.1094618027216897	-1.043702836897064	-0.2335267423723548	-1.324748905158596e-08	-6.232369115343203e-09	5.956281662319724e-08	1.120845078361133e-08	-2.732898301893346e-08	6.074618321341008e-08	-1.321695224080162e-08
1.01	-0.1726248748618817	-0.07892659839052514	0.7205787440373613	1.279495958347931	-0.3311416518823339	0.01773310874503224	-0.9599310607656769	1.199002989311259	1.199002989311242	-0.09024064908961771	-0.1744482005579751	0.1731719675730726	0.01902436042667394	0.1164478895589932	0.02071382085561594	0.07946541490002672	-0.3337293984446758	0.002352499304364391	-0.08574071578142754	0.0004566909871150783	-0.214539357740912	-0.2145393577409383	0.007540580992635713	0.004386108249292676	-0.008569789323122259	0.0009548186957494201	-0.4164490170171412	0.03719210463816657	-0.003950416997035091	-0.2747137058907463	0.0472930979059105	0.03418392368159039	0.4432354717975937	-35.15082725372984	-8.688616829162488	0.9276906254784959	15.18498882050348	-787.7835499319731	-58.23497234387424	-1.09416377142521	1.217498982429584	0.03954978273373441	1.291205989172866	-4.770544507747548	0.1347804802873974	-1.762824236349016	0.1161925770165356	-4.346272233015108	-4.346272233021708	0.2867040100351858	0.136239215382744	-1.036135627549346	-0.1988507554155628	-1.959288279601302e-08	-1.747035359855627e-08	7.963333667788928e-08	1.634380943589314e-08	-3.247395508915448e-08	6.963406214703781e-08	-1.825766650535823e-08
1.02	-0.171399499227269	-0.07871732260271047	0.7214379744410694	1.275919803004601	-0.3311115806160786	0.01678789858849187	-0.9599200366020019	1.196639981517335	1.196639981517309	-0.09015169012056314	-0.1743978077025171	0.1730343816954986	0.01902370091551742	0.1286056308335765	0.02115624785590127	0.09237651915334492	-0.3814932625962239	0.003674452961949936	-0.1032923109325675	0.001841748969026824	-0.2580756257173282	-0.2580756257173998	0.01025044077941683	0.005700617706326997	-0.01894513015102548	-0.00107102885240341	-0.4163518776263461	0.03739037936316954	-0.003990364643017565	-0.2745352725631248	0.04745779870117234	0.03431788982597529	0.4437036472247639	-35.11142441107226	-8.761551485287994	0.9482895262232668	14.93006795906745	-788.2280224075755	-58.32896996729885	-1.132899661391606	1.218809199627926	0.04914863178399528	1.292176314492192	-4.790587849507158	0.1232268033815118	-1.742498769779927	0.1550500734715521	-4.364315848310541	-4.36431584831069	0.2397989080333804	0.1193918856201814	-1.041005361997216	-0.2147475513662457	-2.424824903318616e-08	-2.837129337091226e-08	9.814829424838515e-08	1.872037036535857e-08	-3.742370100463692e-08	7.524347573859012e-08	-2.263054134243866e-08
1.03	-0.170053608244457	-0.07850307743717831	0.7224261196987842	1.271866677650388	-0.3310679152558802	0.01566749488276893	-0.9598912789043773	1.193841264883907	1.193841264883965	-0.09003572097579378	-0.1743340870545007	0.1727931650445132	0.0190032669879265	0.1405087210237523	0.02171754670220778	0.1052413360256024	-0.4290813369578161	0.00507063660448131	-0.1207771989036274	0.004112124791202815	-0.3016761558588261	-0.3016761558588773	0.01293862940996621	0.007043746947989561	-0.02929065350826299	-0.002998859196859688	-0.4166946040329886	0.03765301751767723	-0.004047911213121072	-0.2740959509055765	0.04772686477959182	0.03454318289742195	0.4448201519500949	-35.03812755639686	-8.886558431396988	0.984585595923146	14.43401617784967	-788.8677664124028	-58.471557849154	-1.179559236377391	1.166480267836489	0.06333895679308761	1.281946414709769	-4.735349691095202	0.1496077987597629	-1.749823532528273	0.293381471794818	-4.359184404871099	-4.359184404867943	0.2826015471667239	0.1418346189117284	-1.030196063500179	-0.1792733954366325	-2.888637009171384e-08	-3.926879391152481e-08	1.166473787323076e-07	2.106878029765238e-08	-4.237145481649957e-08	8.081943560216204e-08	-2.699660149148362e-08
1.04	-0.1685906020919197	-0.07828247559403524	0.723542575533445	1.267339185060234	-0.3310099293284431	0.01437257435298438	-0.9598337474214866	1.190606290387503	1.190606290387647	-0.08989301540339267	-0.1742569228789747	0.1724487191117727	0.01896406023300071	0.1520286647788925	0.0224275833780827	0.1180386345425468	-0.4763667097838056	0.006538566409845889	-0.1381956757450589	0.00759650602154671	-0.3453271983123919	-0.3453271983124218	0.01559772630455556	0.008389323208549454	-0.03959098650202707	-0.004825594319368577	-0.4170373304396386	0.03791565567218376	-0.004105457783182013	-0.2736566292480289	0.04799593085801188	0.03476847596886681	0.4459366566754193	-34.97652726185096	-9.008162125550923	1.018790961030619	13.99010401500656	-789.660097431592	-58.60288530534805	-1.234550200610304	1.142179912620798	0.07889619769767701	1.278672643429597	-4.730047542386608	0.1375760359481475	-1.729216543854234	0.3978511551051186	-4.374418310724132	-4.374418310724069	0.2339805608413739	0.1198812893996375	-1.03196728930253	-0.1945285069767737	-3.230973942777151e-08	-4.909572818486515e-08	1.330919265674576e-07	2.169541840876595e-08	-4.646014425239565e-08	8.508498757272531e-08	-3.08277241443235e-08
